name test.mot
datacolumns 19
datarows 33
range 0.41501200000000 0.46833200000000
endheader
time	ground_force1_vx	ground_force1_vy	ground_force1_vz	ground_force1_px	ground_force1_py	ground_force1_pz	ground_force2_vx	ground_force2_vy	ground_force2_vz	ground_force2_px	ground_force2_py	ground_force2_pz	ground_torque1_x	ground_torque1_y	ground_torque1_z	ground_torque2_x	ground_torque2_y	ground_torque2_z	
0.41501200000000	-41.49443900000000	729.79835800000001	-61.43487200000000	-0.15240000000000	0.00000000000000	-0.15751900000000	0.00000000000000	0.00000000000000	0.00000000000000	0.00000000000000	0.00000000000000	0.00000000000000	0.00000000000000	5.05687900000000	0.00000000000000	0.00000000000000	0.00000000000000	0.00000000000000	
0.41666400000000	-41.71937400000000	729.69556799999998	-61.61052200000000	-0.15287400000000	0.00000000000000	-0.15762200000000	0.00000000000000	0.00000000000000	0.00000000000000	0.00000000000000	0.00000000000000	0.00000000000000	0.00000000000000	5.07948400000000	0.00000000000000	0.00000000000000	0.00000000000000	0.00000000000000	
0.41833500000000	-41.93877200000000	729.56469200000004	-61.78796800000000	-0.15334100000000	0.00000000000000	-0.15772600000000	0.00000000000000	0.00000000000000	0.00000000000000	0.00000000000000	0.00000000000000	0.00000000000000	0.00000000000000	5.10429100000000	0.00000000000000	0.00000000000000	0.00000000000000	0.00000000000000	
0.42000500000000	-42.15260600000000	729.40545599999996	-61.96707800000000	-0.15380200000000	0.00000000000000	-0.15783100000000	0.00000000000000	0.00000000000000	0.00000000000000	0.00000000000000	0.00000000000000	0.00000000000000	0.00000000000000	5.13125400000000	0.00000000000000	0.00000000000000	0.00000000000000	0.00000000000000	
0.42166500000000	-42.36084700000000	729.21766500000001	-62.14772000000000	-0.15425600000000	0.00000000000000	-0.15793600000000	0.00000000000000	0.00000000000000	0.00000000000000	0.00000000000000	0.00000000000000	0.00000000000000	0.00000000000000	5.16032800000000	0.00000000000000	0.00000000000000	0.00000000000000	0.00000000000000	
0.42333200000000	-42.56346400000000	729.00119900000004	-62.32976100000000	-0.15470300000000	0.00000000000000	-0.15804100000000	0.00000000000000	0.00000000000000	0.00000000000000	0.00000000000000	0.00000000000000	0.00000000000000	0.00000000000000	5.19146900000000	0.00000000000000	0.00000000000000	0.00000000000000	0.00000000000000	
0.42501100000000	-42.76042400000000	728.75601300000005	-62.51306600000000	-0.15514300000000	0.00000000000000	-0.15814700000000	0.00000000000000	0.00000000000000	0.00000000000000	0.00000000000000	0.00000000000000	0.00000000000000	0.00000000000000	5.22462900000000	0.00000000000000	0.00000000000000	0.00000000000000	0.00000000000000	
0.42666900000000	-42.95169600000000	728.48213799999996	-62.69750100000000	-0.15557800000000	0.00000000000000	-0.15825400000000	0.00000000000000	0.00000000000000	0.00000000000000	0.00000000000000	0.00000000000000	0.00000000000000	0.00000000000000	5.25976400000000	0.00000000000000	0.00000000000000	0.00000000000000	0.00000000000000	
0.42833000000000	-43.13724700000000	728.17967899999996	-62.88293000000000	-0.15600500000000	0.00000000000000	-0.15836100000000	0.00000000000000	0.00000000000000	0.00000000000000	0.00000000000000	0.00000000000000	0.00000000000000	0.00000000000000	5.29682700000000	0.00000000000000	0.00000000000000	0.00000000000000	0.00000000000000	
0.43000400000000	-43.31704600000000	727.84881499999995	-63.06921900000000	-0.15642700000000	0.00000000000000	-0.15846800000000	0.00000000000000	0.00000000000000	0.00000000000000	0.00000000000000	0.00000000000000	0.00000000000000	0.00000000000000	5.33577200000000	0.00000000000000	0.00000000000000	0.00000000000000	0.00000000000000	
0.43166100000000	-43.49106500000000	727.48979699999995	-63.25623300000000	-0.15684300000000	0.00000000000000	-0.15857600000000	0.00000000000000	0.00000000000000	0.00000000000000	0.00000000000000	0.00000000000000	0.00000000000000	0.00000000000000	5.37655100000000	0.00000000000000	0.00000000000000	0.00000000000000	0.00000000000000	
0.43333100000000	-43.65927700000000	727.10294599999997	-63.44383800000000	-0.15725300000000	0.00000000000000	-0.15868500000000	0.00000000000000	0.00000000000000	0.00000000000000	0.00000000000000	0.00000000000000	0.00000000000000	0.00000000000000	5.41911900000000	0.00000000000000	0.00000000000000	0.00000000000000	0.00000000000000	
0.43501100000000	-43.82166000000000	726.68865200000005	-63.63190100000000	-0.15765700000000	0.00000000000000	-0.15879300000000	0.00000000000000	0.00000000000000	0.00000000000000	0.00000000000000	0.00000000000000	0.00000000000000	0.00000000000000	5.46342900000000	0.00000000000000	0.00000000000000	0.00000000000000	0.00000000000000	
0.43666400000000	-43.97819600000000	726.24737100000004	-63.82029300000000	-0.15805600000000	0.00000000000000	-0.15890300000000	0.00000000000000	0.00000000000000	0.00000000000000	0.00000000000000	0.00000000000000	0.00000000000000	0.00000000000000	5.50943200000000	0.00000000000000	0.00000000000000	0.00000000000000	0.00000000000000	
0.43833200000000	-44.12887100000000	725.77962300000002	-64.00888300000000	-0.15844900000000	0.00000000000000	-0.15901200000000	0.00000000000000	0.00000000000000	0.00000000000000	0.00000000000000	0.00000000000000	0.00000000000000	0.00000000000000	5.55708100000000	0.00000000000000	0.00000000000000	0.00000000000000	0.00000000000000	
0.44000300000000	-44.27368000000000	725.28598799999997	-64.19754500000001	-0.15883700000000	0.00000000000000	-0.15912200000000	0.00000000000000	0.00000000000000	0.00000000000000	0.00000000000000	0.00000000000000	0.00000000000000	0.00000000000000	5.60632900000000	0.00000000000000	0.00000000000000	0.00000000000000	0.00000000000000	
0.44166100000000	-44.41262100000000	724.76710500000002	-64.38615400000000	-0.15922100000000	0.00000000000000	-0.15923300000000	0.00000000000000	0.00000000000000	0.00000000000000	0.00000000000000	0.00000000000000	0.00000000000000	0.00000000000000	5.65712700000000	0.00000000000000	0.00000000000000	0.00000000000000	0.00000000000000	
0.44333200000000	-44.54570500000000	724.22366799999998	-64.57458800000001	-0.15959900000000	0.00000000000000	-0.15934400000000	0.00000000000000	0.00000000000000	0.00000000000000	0.00000000000000	0.00000000000000	0.00000000000000	0.00000000000000	5.70942600000000	0.00000000000000	0.00000000000000	0.00000000000000	0.00000000000000	
0.44499500000000	-44.67294500000000	723.65642000000003	-64.76272600000000	-0.15997300000000	0.00000000000000	-0.15945500000000	0.00000000000000	0.00000000000000	0.00000000000000	0.00000000000000	0.00000000000000	0.00000000000000	0.00000000000000	5.76317700000000	0.00000000000000	0.00000000000000	0.00000000000000	0.00000000000000	
0.44666300000000	-44.79437000000000	723.06615399999998	-64.95045399999999	-0.16034300000000	0.00000000000000	-0.15956700000000	0.00000000000000	0.00000000000000	0.00000000000000	0.00000000000000	0.00000000000000	0.00000000000000	0.00000000000000	5.81832800000000	0.00000000000000	0.00000000000000	0.00000000000000	0.00000000000000	
0.44833200000000	-44.91001300000000	722.45370400000002	-65.13765700000000	-0.16070800000000	0.00000000000000	-0.15968000000000	0.00000000000000	0.00000000000000	0.00000000000000	0.00000000000000	0.00000000000000	0.00000000000000	0.00000000000000	5.87482900000000	0.00000000000000	0.00000000000000	0.00000000000000	0.00000000000000	
0.45001000000000	-45.01992100000000	721.81994599999996	-65.32422400000000	-0.16107000000000	0.00000000000000	-0.15979300000000	0.00000000000000	0.00000000000000	0.00000000000000	0.00000000000000	0.00000000000000	0.00000000000000	0.00000000000000	5.93262700000000	0.00000000000000	0.00000000000000	0.00000000000000	0.00000000000000	
0.45166300000000	-45.12415200000000	721.16578700000002	-65.51004700000000	-0.16142700000000	0.00000000000000	-0.15990600000000	0.00000000000000	0.00000000000000	0.00000000000000	0.00000000000000	0.00000000000000	0.00000000000000	0.00000000000000	5.99166800000000	0.00000000000000	0.00000000000000	0.00000000000000	0.00000000000000	
0.45333500000000	-45.22277500000000	720.49216799999999	-65.69502199999999	-0.16178100000000	0.00000000000000	-0.16002000000000	0.00000000000000	0.00000000000000	0.00000000000000	0.00000000000000	0.00000000000000	0.00000000000000	0.00000000000000	6.05189600000000	0.00000000000000	0.00000000000000	0.00000000000000	0.00000000000000	
0.45501500000000	-45.31587000000000	719.80005300000005	-65.87904500000000	-0.16213200000000	0.00000000000000	-0.16013500000000	0.00000000000000	0.00000000000000	0.00000000000000	0.00000000000000	0.00000000000000	0.00000000000000	0.00000000000000	6.11325300000000	0.00000000000000	0.00000000000000	0.00000000000000	0.00000000000000	
0.45666400000000	-45.40353200000000	719.09042999999997	-66.06201500000000	-0.16248000000000	0.00000000000000	-0.16025000000000	0.00000000000000	0.00000000000000	0.00000000000000	0.00000000000000	0.00000000000000	0.00000000000000	0.00000000000000	6.17568000000000	0.00000000000000	0.00000000000000	0.00000000000000	0.00000000000000	
0.45833400000000	-45.48586800000000	718.36429899999996	-66.24383500000000	-0.16282400000000	0.00000000000000	-0.16036600000000	0.00000000000000	0.00000000000000	0.00000000000000	0.00000000000000	0.00000000000000	0.00000000000000	0.00000000000000	6.23911300000000	0.00000000000000	0.00000000000000	0.00000000000000	0.00000000000000	
0.46000400000000	-45.56299800000000	717.62267299999996	-66.42440700000000	-0.16316600000000	0.00000000000000	-0.16048200000000	0.00000000000000	0.00000000000000	0.00000000000000	0.00000000000000	0.00000000000000	0.00000000000000	0.00000000000000	6.30348700000000	0.00000000000000	0.00000000000000	0.00000000000000	0.00000000000000	
0.46166400000000	-45.63505700000000	716.86657300000002	-66.60363599999999	-0.16350500000000	0.00000000000000	-0.16059800000000	0.00000000000000	0.00000000000000	0.00000000000000	0.00000000000000	0.00000000000000	0.00000000000000	0.00000000000000	6.36873300000000	0.00000000000000	0.00000000000000	0.00000000000000	0.00000000000000	
0.46333100000000	-45.70219200000000	716.09701800000005	-66.78142500000000	-0.16384200000000	0.00000000000000	-0.16071600000000	0.00000000000000	0.00000000000000	0.00000000000000	0.00000000000000	0.00000000000000	0.00000000000000	0.00000000000000	6.43477900000000	0.00000000000000	0.00000000000000	0.00000000000000	0.00000000000000	
0.46500400000000	-45.76456400000000	715.31502499999999	-66.95768000000000	-0.16417600000000	0.00000000000000	-0.16083400000000	0.00000000000000	0.00000000000000	0.00000000000000	0.00000000000000	0.00000000000000	0.00000000000000	0.00000000000000	6.50154900000000	0.00000000000000	0.00000000000000	0.00000000000000	0.00000000000000	
0.46666200000000	-45.82235000000000	714.52159900000004	-67.13230700000000	-0.16450800000000	0.00000000000000	-0.16095200000000	0.00000000000000	0.00000000000000	0.00000000000000	0.00000000000000	0.00000000000000	0.00000000000000	0.00000000000000	6.56896200000000	0.00000000000000	0.00000000000000	0.00000000000000	0.00000000000000	
0.46833200000000	-45.87573900000000	713.71773599999995	-67.30520700000000	-0.16483900000000	0.00000000000000	-0.16107100000000	0.00000000000000	0.00000000000000	0.00000000000000	0.00000000000000	0.00000000000000	0.00000000000000	0.00000000000000	6.63693400000000	0.00000000000000	0.00000000000000	0.00000000000000	0.00000000000000	
